<?xml version="1.0" standalone="no"?>
<!DOCTYPE svg PUBLIC "-//W3C//DTD SVG 20010904//EN"
 "http://www.w3.org/TR/2001/REC-SVG-20010904/DTD/svg10.dtd">
<svg version="1.0" xmlns="http://www.w3.org/2000/svg"
 width="512.000000pt" height="512.000000pt" viewBox="0 0 512.000000 512.000000"
 preserveAspectRatio="xMidYMid meet">
<metadata>
Created by potrace 1.11, written by Peter Selinger 2001-2013
</metadata>
<g transform="translate(0.000000,512.000000) scale(0.100000,-0.100000)"
fill="#000000" stroke="none">
<path d="M0 2560 l0 -2560 2560 0 2560 0 0 2560 0 2560 -2560 0 -2560 0 0
-2560z m1575 945 c178 -60 295 -175 356 -352 l18 -53 -22 -5 c-142 -36 -273
-62 -278 -57 -3 4 -14 28 -23 54 -54 146 -233 221 -404 169 -119 -36 -200
-127 -239 -272 -24 -89 -24 -355 0 -452 32 -128 97 -216 196 -264 77 -38 199
-40 278 -4 85 38 153 124 184 231 7 25 15 48 18 52 6 7 275 -72 287 -85 12
-12 -48 -157 -96 -230 -83 -128 -205 -209 -362 -241 -319 -65 -619 73 -752
345 -68 141 -80 202 -80 409 0 185 10 254 56 370 85 215 250 355 478 405 104
23 285 14 385 -20z m1457 21 c196 -38 343 -133 443 -286 94 -145 130 -299 122
-525 -9 -249 -64 -393 -206 -536 -129 -129 -255 -183 -457 -196 -165 -10 -321
23 -450 94 -80 44 -194 166 -242 259 -67 131 -87 227 -86 429 1 140 5 184 23
250 60 225 210 404 400 476 124 47 314 62 453 35z m-2612 -766 l0 -750 -155 0
-155 0 0 750 0 750 155 0 155 0 0 -750z m4024 252 l301 -493 3 496 2 495 140
0 140 0 0 -750 0 -751 -152 3 -153 3 -295 480 -295 480 -3 -483 -2 -482 -145
0 -145 0 0 750 0 751 151 -3 151 -3 302 -493z"/>
<path d="M2760 3264 c-138 -37 -233 -143 -277 -307 -20 -75 -23 -287 -6 -363
49 -209 181 -337 364 -351 178 -13 321 70 395 231 70 153 70 428 1 580 -31 67
-107 150 -162 178 -93 48 -211 60 -315 32z"/>
</g>
</svg>
